<svg width="1400" height="280" viewBox="0 0 1400 280" fill="none" xmlns="http://www.w3.org/2000/svg" role="img" aria-labelledby="title desc">
  <title id="title">FixGap AI</title>
  <desc id="desc">Autonomous Lisbon Airbnb Listing Editor</desc>
  <defs>
    <linearGradient id="bg" x1="0" y1="0" x2="1400" y2="280" gradientUnits="userSpaceOnUse">
      <stop offset="0" stop-color="#38BDF8"/>
      <stop offset="0.36" stop-color="#8B5CF6"/>
      <stop offset="0.72" stop-color="#EC4899"/>
      <stop offset="1" stop-color="#FF385C"/>
    </linearGradient>
    <linearGradient id="shine" x1="96" y1="250" x2="1290" y2="64" gradientUnits="userSpaceOnUse">
      <stop offset="0" stop-color="#FFFFFF" stop-opacity="0.55"/>
      <stop offset="1" stop-color="#FFFFFF" stop-opacity="0.12"/>
    </linearGradient>
    <filter id="softShadow" x="-20%" y="-20%" width="140%" height="140%" color-interpolation-filters="sRGB">
      <feDropShadow dx="0" dy="16" stdDeviation="18" flood-color="#111827" flood-opacity="0.18"/>
    </filter>
  </defs>
  <rect x="0" y="0" width="1400" height="280" rx="30" fill="url(#bg)"/>
  <path d="M0 210C180 172 354 234 534 190C714 146 875 185 1051 170C1212 156 1314 96 1400 132V280H0V210Z" fill="url(#shine)"/>
  <g filter="url(#softShadow)">
    <rect x="94" y="70" width="104" height="104" rx="28" fill="white" fill-opacity="0.95"/>
    <path d="M129 105H164C169.523 105 174 109.477 174 115V139C174 144.523 169.523 149 164 149H145L129 161V149H126C120.477 149 116 144.523 116 139V115C116 109.477 120.477 105 126 105H129Z" fill="#FF385C"/>
    <path d="M132 121H160M132 133H151" stroke="white" stroke-width="7" stroke-linecap="round"/>
  </g>
  <text x="240" y="125" fill="white" font-family="Inter, Segoe UI, Arial, sans-serif" font-size="64" font-weight="800" letter-spacing="0">FixGap AI</text>
  <text x="244" y="171" fill="white" fill-opacity="0.96" font-family="Inter, Segoe UI, Arial, sans-serif" font-size="28" font-weight="650" letter-spacing="0">Autonomous Lisbon Airbnb Listing Editor</text>
  <text x="245" y="210" fill="white" fill-opacity="0.84" font-family="Inter, Segoe UI, Arial, sans-serif" font-size="20" font-weight="500" letter-spacing="0">Aligning simulated listing pages with real guest experience through ReAct, Supabase, Pinecone, and LLMod.ai</text>
</svg>
